# xmcd CD database file
#
# Track frame offsets:
#	150
#	44160
#	81352
#	101887
#	155505
#	199710
#	239905
#	263245
#	306340
#
# Disc length: 4254 seconds
#
# Revision: 0
# Processed by: cddbd v1.5.1PL2 Copyright (c) Steve Scherf et al.
# Submitted via: CDex 1.51
#
DISCID=87109c09
DTITLE=Dizzy Gillespie - Jazz Giants All Stars Vol. 5
DYEAR=1998
DGENRE=Jazz
TTITLE0=Dizzy's Party
TTITLE1=Frelimo
TTITLE2=Be Bop (Dizzy's Fingers)
TTITLE3=Just Friends
TTITLE4=The Champ
TTITLE5=Birk Works
TTITLE6=Calidoscopico
TTITLE7=Chicken Wings
TTITLE8=September Song
EXTD=YEAR: 1998
EXTT0=
EXTT1=
EXTT2=
EXTT3=
EXTT4=
EXTT5=
EXTT6=
EXTT7=
EXTT8=
PLAYORDER=
